<?xml version="1.0" encoding="UTF-8" standalone="no"?>
<!-- Created with Inkscape (http://www.inkscape.org/) by Toomai Glittershine for SmashWiki -->
<svg id="svg2" xmlns:rdf="http://www.w3.org/1999/02/22-rdf-syntax-ns#" xmlns="http://www.w3.org/2000/svg" version="1.1" xmlns:cc="http://creativecommons.org/ns#" xmlns:dc="http://purl.org/dc/elements/1.1/" xmlns:xlink="http://www.w3.org/1999/xlink"
		height="256" width="256"
		viewBox="0 0 256 256">
	<defs id="defs4">
		<linearGradient id="linearGradient4240">
			<stop id="stop4242" offset="0" style="stop-color:#474747;stop-opacity:1;" />
			<stop id="stop4244" offset="1" style="stop-color:#232323;stop-opacity:1;" />
		</linearGradient>
		<linearGradient id="linearGradient4239">
			<stop id="stop4241" offset="0" style="stop-color:#000000;stop-opacity:1;" />
			<stop id="stop4243" offset="1" style="stop-color:#7f7f7f;stop-opacity:1;" />
		</linearGradient>
		<linearGradient id="linearGradient4223">
			<stop id="stop4225" offset="0" style="stop-color:#ffffff;stop-opacity:1;" />
			<stop id="stop4227" offset="1" style="stop-color:#7f7f7f;stop-opacity:1;" />
		</linearGradient>
		<radialGradient id="radialGradient4246" xlink:href="#linearGradient4240" cx="128" cy="138" fx="128" fy="138" r="40" gradientUnits="userSpaceOnUse" />
		<linearGradient id="linearGradient4289" xlink:href="#linearGradient4239" x1="150" y1="224" x2="160" y2="214" gradientUnits="userSpaceOnUse" />
		<linearGradient id="linearGradient4297" xlink:href="#linearGradient4239" x1="165" y1="155" x2="155" y2="165" gradientUnits="userSpaceOnUse" />
		<linearGradient id="linearGradient4305" xlink:href="#linearGradient4239" x1="214" y1="160" x2="224" y2="150" gradientUnits="userSpaceOnUse" />
		<linearGradient id="linearGradient4313" xlink:href="#linearGradient4223" x1="214" y1="96" x2="224" y2="106" gradientUnits="userSpaceOnUse" />
		<linearGradient id="linearGradient4321" xlink:href="#linearGradient4223" x1="165" y1="101" x2="155" y2="91" gradientUnits="userSpaceOnUse" />
		<linearGradient id="linearGradient4329" xlink:href="#linearGradient4223" x1="150" y1="32" x2="160" y2="42" gradientUnits="userSpaceOnUse" />
		<linearGradient id="linearGradient4281" xlink:href="#linearGradient4239" x1="106" y1="224" x2="96" y2="214" gradientUnits="userSpaceOnUse" />
		<linearGradient id="linearGradient4273" xlink:href="#linearGradient4239" x1="91" y1="155" x2="101" y2="165" gradientUnits="userSpaceOnUse" />
		<linearGradient id="linearGradient4265" xlink:href="#linearGradient4239" x1="42" y1="160" x2="32" y2="150" gradientUnits="userSpaceOnUse" />
		<linearGradient id="linearGradient4257" xlink:href="#linearGradient4223" x1="42" y1="96" x2="32" y2="106" gradientUnits="userSpaceOnUse" />
		<linearGradient id="linearGradient4249" xlink:href="#linearGradient4223" x1="91" y1="101" x2="101" y2="91" gradientUnits="userSpaceOnUse" />
		<linearGradient id="linearGradient4241" xlink:href="#linearGradient4223" x1="106" y1="32" x2="96" y2="42" gradientUnits="userSpaceOnUse" />
	</defs>
	<metadata id="metadata7">
		<rdf:RDF>
			<cc:Work rdf:about="">
				<dc:format>image/svg+xml</dc:format>
				<dc:type rdf:resource="http://purl.org/dc/dcmitype/StillImage"/>
				<dc:title/>
			</cc:Work>
		</rdf:RDF>
	</metadata>
	<g id="g4598">
		<path id="rect3356" style="opacity:1;fill:#474747;fill-opacity:1;stroke:none;"
			d="m 106,32 c -5.54,0 -10,4.46 -10,10 l 0,44 c 0,4.714045 -5.285955,10 -10,10 l -44,0 c -5.54,0 -10,4.46 -10,10 l 0,44 c 0,5.54 4.46,10 10,10 l 44,0 c 4.714045,0 10,5.28595 10,10 l 0,44 c 0,5.54 4.46,10 10,10 l 44,0 c 5.54,0 10,-4.46 10,-10 l 0,-44 c 0,-4.71405 5.28595,-10 10,-10 l 44,0 c 5.54,0 10,-4.46 10,-10 l 0,-44 c 0,-5.54 -4.46,-10 -10,-10 l -44,0 c -4.71405,0 -10,-5.285955 -10,-10 l 0,-44 c 0,-5.54 -4.46,-10 -10,-10 z"
		/>
		<g id="g4331">
			<path id="path4230" style="opacity:0.25;fill:url(#linearGradient4289);fill-opacity:1;stroke:none;"
				d="m 128,224 22,0 c 5.54,0 10,-4.46 10,-10 l 0,-22 -5,-5 0,22 c 0,5.54 -4.46,10 -10,10 l -17,0 z"
			/>
			<path id="path4228" style="opacity:0.25;fill:url(#linearGradient4297);fill-opacity:1;stroke:none;"
				d="m 160,192 0,-22 c 0,-4.71405 5.28595,-10 10,-10 l 22,0 -5,-5 -22,0 c -4.71405,0 -10,5.28595 -10,10 l 0,22 z"
			/>
			<path id="path4226" style="opacity:0.25;fill:url(#linearGradient4305);fill-opacity:1;stroke:none;"
				d="m 192,160 22,0 c 5.54,0 10,-4.46 10,-10 l 0,-22 -5,0 0,17 c 0,5.54 -4.46,10 -10,10 l -22,0 z"
			/>
			<path id="path4224" style="opacity:0.25;fill:url(#linearGradient4313);fill-opacity:1;stroke:none;"
				d="m 224,128 0,-22 c 0,-5.54 -4.46,-10 -10,-10 l -22,0 -5,5 22,0 c 5.54,0 10,4.46 10,10 l 0,17 z"
			/>
			<path id="path4222" style="opacity:0.25;fill:url(#linearGradient4321);fill-opacity:1;stroke:none;"
				d="m 192,96 -22,0 c -4.71405,0 -10,-5.285955 -10,-10 l 0,-22 -5,5 0,22 c 0,4.714045 5.28595,10 10,10 l 22,0 z"
			/>
			<path id="path4220" style="opacity:0.25;fill:url(#linearGradient4329);fill-opacity:1;stroke:none;"
				d="m 160,64 0,-22 c 0,-5.54 -4.46,-10 -10,-10 l -22,0 0,5 17,0 c 5.54,0 10,4.46 10,10 l 0,22 z"
			/>
			<path id="path4194" style="opacity:0.25;fill:url(#linearGradient4281);fill-opacity:1;stroke:none;"
				d="m 128,219 -17,0 c -5.54,0 -10,-4.46 -10,-10 l 0,-22 -5,5 0,22 c 0,5.54 4.46,10 10,10 l 22,0 z"
			/>
			<path id="path4192" style="opacity:0.25;fill:url(#linearGradient4273);fill-opacity:1;stroke:none;"
				d="m 101,187 0,-22 c 0,-4.71405 -5.285955,-10 -10,-10 l -22,0 -5,5 22,0 c 4.714045,0 10,5.28595 10,10 l 0,22 z"
			/>
			<path id="path4190" style="opacity:0.25;fill:url(#linearGradient4265);fill-opacity:1;stroke:none;"
				d="m 69,155 -22,0 c -5.54,0 -10,-4.46 -10,-10 l 0,-17 -5,0 0,22 c 0,5.54 4.46,10 10,10 l 22,0 z"
			/>
			<path id="path4188" style="opacity:0.25;fill:url(#linearGradient4257);fill-opacity:1;stroke:none;"
				d="m 37,128 0,-17 c 0,-5.54 4.46,-10 10,-10 l 22,0 -5,-5 -22,0 c -5.54,0 -10,4.46 -10,10 l 0,22 z"
			/>
			<path id="path4186" style="opacity:0.25;fill:url(#linearGradient4249);fill-opacity:1;stroke:none;"
				d="m 69,101 22,0 c 4.714045,0 10,-5.285955 10,-10 l 0,-22 -5,-5 0,22 c 0,4.714045 -5.285955,10 -10,10 l -22,0 z"
			/>
			<path id="path4180" style="opacity:0.25;fill:url(#linearGradient4241);fill-opacity:1;stroke:none;"
				d="m 101,69 0,-22 c 0,-5.54 4.46,-10 10,-10 l 17,0 0,-5 -22,0 c -5.54,0 -10,4.46 -10,10 l 0,22 z"
			/>
		</g>
		<circle id="path3370" cx="128" cy="128" r="20" style="opacity:1;fill:url(#radialGradient4246);fill-opacity:1;stroke:none;" />
		<path id="path3380" style="opacity:1;fill:#232323;fill-opacity:1;stroke:none;"
			d="m 130,47.736328 c -0.66667,-1.154701 -3.33333,-1.154701 -4,0 l -17.22461,29.833984 c -0.66677,1.154887 0.66645,3.464844 2,3.464844 l 34.44922,0 c 1.33355,0 2.66677,-2.309957 2,-3.464844 z"
		/>
		<path id="path3387" style="opacity:1;fill:#232323;fill-opacity:1;stroke:none;"
			d="m 208.26367,130 c 1.1547,-0.66667 1.1547,-3.33333 0,-4 l -29.83398,-17.22461 c -1.15489,-0.66677 -3.46485,0.66645 -3.46485,2 l 0,34.44922 c 0,1.33355 2.30996,2.66677 3.46485,2 z"
		/>
		<path id="path3391" style="opacity:1;fill:#232323;fill-opacity:1;stroke:none;"
			d="m 126,208.26367 c 0.66667,1.1547 3.33333,1.1547 4,0 l 17.22461,-29.83398 c 0.66677,-1.15489 -0.66645,-3.46485 -2,-3.46485 l -34.44922,0 c -1.33355,0 -2.66677,2.30996 -2,3.46485 z"
		/>
		<path id="path3395" style="opacity:1;fill:#232323;fill-opacity:1;stroke:none;"
			d="m 47.73633,126 c -1.1547,0.66667 -1.1547,3.33333 0,4 l 29.83398,17.22461 c 1.15489,0.66677 3.46485,-0.66645 3.46485,-2 l 0,-34.44922 c 0,-1.33355 -2.30996,-2.66677 -3.46485,-2 z"
		/>
		<path id="path4219" style="opacity:1;fill:#353535;fill-opacity:1;stroke:none;"
			d="m 128,48.871094 c -0.83333,0 -1.66667,0.287884 -2,0.865234 l -17.12891,29.667969 c 0.38722,0.866413 1.13915,1.630859 1.9043,1.630859 l 34.44922,0 c 0.76515,0 1.51708,-0.764446 1.9043,-1.630859 L 130,49.736328 c -0.33334,-0.57735 -1.16667,-0.865234 -2,-0.865234 z"
		/>
		<path id="path4221" style="opacity:1;fill:#353535;fill-opacity:1;stroke:none;"
			d="m 177.94922,110.61523 c -1.21583,-0.17326 -2.98438,0.9933 -2.98438,2.16016 l 0,32.44922 c 0,1.33355 2.30996,2.66677 3.46485,2 L 208.26367,130 c 0.33609,-0.19404 0.56268,-0.56572 0.70313,-1 -0.14045,-0.43428 -0.36704,-0.80596 -0.70313,-1 l -29.83398,-17.22461 c -0.14436,-0.0833 -0.30678,-0.1354 -0.48047,-0.16016 z"
		/>
		<path id="path4223" style="opacity:1;fill:#353535;fill-opacity:1;stroke:none;"
			d="m 110.77539,176.96484 c -0.76515,0 -1.51708,0.76445 -1.9043,1.63086 L 126,208.26367 c 0.66667,1.1547 3.33333,1.1547 4,0 l 17.12891,-29.66797 c -0.38722,-0.86641 -1.13915,-1.63086 -1.9043,-1.63086 l -34.44922,0 z"
		/>
		<path id="path4225" style="opacity:1;fill:#353535;fill-opacity:1;stroke:none;"
			d="m 78.050781,110.61523 c -0.173689,0.0248 -0.336107,0.0768 -0.480469,0.16016 L 47.736328,128 c -0.336091,0.19404 -0.562682,0.56572 -0.703125,1 0.140443,0.43428 0.367034,0.80596 0.703125,1 l 29.833984,17.22461 c 1.15489,0.66677 3.464844,-0.66645 3.464844,-2 l 0,-32.44922 c 0,-1.16686 -1.768548,-2.33342 -2.984375,-2.16016 z"
		/>
	</g>
</svg>