<?xml version="1.0" encoding="UTF-8" standalone="no"?>
<!-- Created with Inkscape (http://www.inkscape.org/) by Toomai Glittershine for SmashWiki -->
<svg id="svg2" xmlns:rdf="http://www.w3.org/1999/02/22-rdf-syntax-ns#" xmlns="http://www.w3.org/2000/svg" version="1.1" xmlns:cc="http://creativecommons.org/ns#" xmlns:dc="http://purl.org/dc/elements/1.1/" xmlns:xlink="http://www.w3.org/1999/xlink"
		height="256" width="256"
		viewBox="0 0 256 256">
	<defs id="defs4">
		<linearGradient id="linearGradient4285">
			<stop id="stop4287" offset="0" style="stop-color:#ff3f3f;stop-opacity:1;" />
			<stop id="stop4297" offset="0.85" style="stop-color:#ff3f3f;stop-opacity:1;" />
			<stop id="stop4293" offset="0.95" style="stop-color:#ff3f3f;stop-opacity:0;" />
			<stop id="stop4289" offset="1" style="stop-color:#ff3f3f;stop-opacity:0;" />
		</linearGradient>
		<linearGradient id="linearGradient4273">
			 <stop id="stop4275" offset="0" style="stop-color:#ff0000;stop-opacity:1;" />
			<stop id="stop4281" offset="0.95" style="stop-color:#ff0000;stop-opacity:1;" />
			<stop id="stop4277" offset="1" style="stop-color:#7f0000;stop-opacity:1;" />
		</linearGradient>
		<linearGradient id="linearGradient4427">
			<stop id="stop4429" offset="0" style="stop-color:#000000;stop-opacity:1;" />
			<stop id="stop4431" offset="1" style="stop-color:#000000;stop-opacity:0;" />
		</linearGradient>
		<radialGradient id="radialGradient4279" xlink:href="#linearGradient4273" cx="128" cy="124" fx="128" fy="124" r="96" gradientUnits="userSpaceOnUse" />
		<radialGradient id="radialGradient4291" xlink:href="#linearGradient4285" cx="128" cy="124" fx="128" fy="124" r="96" gradientUnits="userSpaceOnUse" />
		<radialGradient id="radialGradient4433" xlink:href="#linearGradient4427" cx="128" cy="114.75862" fx="128" fy="114.75862" r="128" gradientUnits="userSpaceOnUse"
			gradientTransform="matrix(1.3277108,0,0,1.3277108,-41.946988,-41.946988)"
		/>
	</defs>
	<metadata id="metadata7">
		<rdf:RDF>
			<cc:Work rdf:about="">
				<dc:format>image/svg+xml</dc:format>
				<dc:type rdf:resource="http://purl.org/dc/dcmitype/StillImage"/>
				<dc:title/>
			</cc:Work>
		</rdf:RDF>
	</metadata>
  <g
     id="layer1"
	 >
    <g
       id="g4510"
       transform="matrix(0.875,0,0,0.875,16,16)">
      <circle
         r="128"
         cy="128"
         cx="128"
         id="path3625"
         style="opacity:0.25;fill:url(#radialGradient4433);fill-opacity:1;stroke:none;stroke-width:1;stroke-linecap:butt;stroke-miterlimit:4;stroke-dasharray:none;stroke-opacity:1" />
      <path
         id="circle4220"
         d="m 32,128 0,4 c 0,53.01934 42.980656,96 96,96 53.01934,0 96,-42.98074 96,-96 l 0,-4 z"
         style="opacity:1;fill:#7f0000;fill-opacity:1;stroke:none;stroke-width:1;stroke-linecap:butt;stroke-miterlimit:4;stroke-dasharray:none;stroke-opacity:1" />
      <circle
         r="96"
         cy="128"
         cx="128"
         id="path3336"
         style="opacity:1;fill:url(#radialGradient4279);fill-opacity:1;stroke:none;stroke-width:1;stroke-linecap:butt;stroke-miterlimit:4;stroke-dasharray:none;stroke-opacity:1" />
      <circle
         r="96"
         cy="124"
         cx="128"
         id="path4283"
         style="opacity:1;fill:url(#radialGradient4291);fill-opacity:1;stroke:none;stroke-width:1;stroke-linecap:butt;stroke-miterlimit:4;stroke-dasharray:none;stroke-opacity:1" />
      <path
         d="m 175.506,88.568 0,7.241 c 0,0.471316 0.52871,0.999594 1.00003,0.999594 l 5.748,0 c 0.4715,0 1.00002,0.528902 1.00002,1.000406 l -2e-5,52.283 c 0,0.47136 0.52864,0.9998 1,0.9998 l 8.297,0 c 0.47136,0 1,-0.52844 1,-0.9998 l -1.1e-4,-52.283 c 0,-0.471526 0.52858,-1.000406 1.00011,-1.000406 l 5.748,0 c 0.47129,0 0.99994,-0.528299 0.99994,-0.999594 l 0,-7.241 c 0,-0.471306 -0.52863,-0.999641 -0.99994,-0.999641 l -23.793,0 c -0.47133,0 -1.00003,0.528314 -1.00003,0.999641 z m -91.338031,0 0,7.241 c 0,0.471316 0.528715,0.999594 1.000031,0.999594 l 5.748,0 c 0.471504,0 1.000016,0.528902 1.000016,1.000406 l -1.6e-5,52.283 c 0,0.47136 0.528643,0.9998 1,0.9998 l 8.297,0 c 0.47136,0 1,-0.52844 1,-0.9998 l -1.1e-4,-52.283 c 0,-0.471526 0.52858,-1.000406 1.00011,-1.000406 l 5.748,0 c 0.47129,0 0.99994,-0.528299 0.99994,-0.999594 l 0,-7.241 c 0,-0.471306 -0.52863,-0.999641 -0.99994,-0.999641 l -23.793,0 c -0.471327,0 -1.000031,0.528314 -1.000031,0.999641 z M 65.083,134.63355 58.17,134.634 c -0.471349,3e-5 -0.999763,0.52865 -0.999763,1 l 0,5.929 c 0,1.93452 1.154954,10.20238 11.549542,10.20238 10.394589,0 12.993219,-8.56619 12.993221,-10.20238 l 1.3e-5,-9.491 c 10e-7,-0.63866 -0.183612,-1.30014 -0.516896,-1.84495 L 67.141872,107.2532 c -0.328431,-0.53687 -0.50175,-1.19084 -0.50175,-1.8202 l 0,-7.758 c 0,-1.2512 0.577477,-3.07986 2.887386,-3.07986 2.309909,0 3.272516,1.528414 3.272492,3.080337 l 0,6.121523 c 0,0.4714 0.528595,0.99998 1,1 l 6.913,2.4e-4 c 0.471465,2e-5 1.000015,-0.52878 1.000015,-1.00024 l 0,-5.929206 c 0,-1.93452 -1.154954,-10.20238 -11.549542,-10.20238 -10.394589,0 -12.993219,8.566396 -12.993221,10.202586 l -1.4e-5,9.49 c -10e-7,0.64808 0.194003,1.31715 0.532199,1.86999 l 13.972143,22.84002 c 0.3498,0.57181 0.568298,1.25867 0.568298,1.92899 l 0,7.75831 c 0,1.2512 -0.577477,3.08034 -2.887386,3.08034 -2.309909,0 -3.27237,-1.52841 -3.27237,-3.08034 l -9.4e-5,-6.12131 c -7e-6,-0.47152 -0.528511,-1.00048 -1.000028,-1.00045 z M 146.77539,88.568 146.775,150.092 c 0,0.47136 0.52864,0.9998 1,0.9998 l 6.373,0 c 0.47136,0 0.99999,-0.52844 1,-0.9998 l 3.7e-4,-26.393 c 0,-0.33333 0.55544,-1 0.83313,-1 1.88638,0 3.72631,0.39485 5.03835,2.21343 1.38234,1.91602 1.05827,6.77031 1.05827,10.0114 L 162.078,150.092 c 0,0.47136 0.52864,0.9998 1,0.9998 l 7.316,0 c 0.47136,0 1,-0.52844 1,-0.9998 l 0,-17.57207 c 0,-3.2963 -0.1045,-6.05203 -1.03833,-8.66674 -0.64359,-1.80204 -3.05153,-3.6341 -4.48618,-4.59886 -0.647,-0.43509 -0.6491,-0.91232 0.009,-1.32066 1.38989,-0.86279 3.72109,-2.57297 4.76634,-4.85945 1.53994,-3.36862 0.1923,-18.767998 -1.34765,-21.462892 C 167.75693,88.916434 162.08457,87.568 159.38281,87.568 l -11.60781,0 c -0.47131,0 -0.99961,0.528687 -0.99961,1 z m 8.37361,25.816 c 0,0.33333 0.66667,1 1,1 1.21852,0 4.16499,-0.33539 5.35211,-1.44341 1.44369,-1.34749 1.2512,-13.57071 -0.28874,-15.206894 -1.2046,-1.279887 -3.51026,-1.924696 -4.78037,-1.924696 -0.42767,0 -1.283,0.666667 -1.283,1 z m -29.09041,-14.33908 4.63868,27.34766 c 0.0718,0.42358 -0.40241,0.98437 -0.83204,0.98437 l -7.95117,0 c -0.42963,0 -0.90391,-0.56079 -0.83203,-0.98437 l 4.64063,-27.34766 c 0.0187,-0.110398 0.3172,-0.1104 0.33593,0 z m -16.33984,50.0625 c -0.0719,0.42358 0.40239,0.98438 0.83203,0.98438 l 5.50781,0 c 0.50916,0 1.08279,-0.4824 1.16797,-0.98438 l 2.37696,-14.00781 c 0.0851,-0.50149 0.65735,-0.98438 1.16601,-0.98438 l 10.24024,0 c 0.50866,0 1.08091,0.48289 1.16601,0.98438 l 2.37695,14.00781 c 0.0852,0.50198 0.65881,0.98438 1.16797,0.98438 l 5.50782,0 c 0.42964,0 0.90391,-0.5608 0.83203,-0.98438 L 131.61523,88.552734 c -0.0852,-0.501976 -0.65881,-0.984375 -1.16796,-0.984375 l -9.11524,0 c -0.50915,0 -1.08279,0.482396 -1.16797,0.984375 z"
         style="fill:#7f0000;fill-opacity:1;fill-rule:evenodd;stroke:none;stroke-width:1px;stroke-linecap:butt;stroke-linejoin:miter;stroke-opacity:1"
         id="path3557"
         />
      <path
         id="path3620"
         d="m 85.167969,91.568359 c -0.471327,0 -1,0.528673 -1,1 l 0,3.240235 c 0,0.471316 0.528684,1 1,1 l 5.748047,0 c 0.471504,0 1,0.528496 1,1 l 0,3.999996 0,48.28321 c 0,0.47136 0.528643,1 1,1 l 8.296874,0 c 0.47136,0 1,-0.52864 1,-1 l 0,-48.28321 0,-3.999996 c 0,-0.471526 0.52847,-1 1,-1 l 5.74805,0 c 0.47129,0 1,-0.528705 1,-1 l 0,-3.240235 c 0,-0.471306 -0.52869,-1 -1,-1 z m 36.164061,0 c -0.50915,0 -1.08279,0.482396 -1.16797,0.984375 l -9.91797,58.451176 c 0.0987,0.0534 0.20321,0.0879 0.30469,0.0879 l 5.50781,0 c 0.50916,0 1.08279,-0.4824 1.16797,-0.98438 l 2.37696,-14.00781 c 0.0851,-0.50149 0.65735,-0.98438 1.16601,-0.98438 l 10.24024,0 c 0.50866,0 1.08091,0.48289 1.16601,0.98438 l 2.37695,14.00781 c 0.0852,0.50198 0.65881,0.98438 1.16797,0.98438 l 5.50782,0 c 0.10148,0 0.206,-0.0345 0.30468,-0.0879 l -9.91797,-58.451176 c -0.0852,-0.501976 -0.65881,-0.984375 -1.16796,-0.984375 z m 26.44336,0 c -0.47131,0 -1,0.528687 -1,1 l 0,57.523441 c 0,0.47136 0.52864,1 1,1 l 6.37305,0 c 0.47136,0 0.99999,-0.52864 1,-1 l 0,-22.39258 0,-4 c 0,-0.33333 0.55629,-1 0.83398,-1 1.88638,0 3.72507,0.39431 5.03711,2.21289 1.33138,1.84538 1.08286,6.38893 1.0625,9.61914 0.0273,1.52948 -0.004,3.0889 -0.004,4.39258 l 0,11.16797 c 0,0.47136 0.52864,1 1,1 l 7.31641,0 c 0.47136,0 1,-0.52864 1,-1 l 0,-13.57227 c 0,-3.2963 -0.10523,-6.0513 -1.03906,-8.66601 -0.64359,-1.80204 -3.05168,-3.63485 -4.48633,-4.59961 -0.32243,-0.21682 -0.4845,-0.44403 -0.4845,-0.66795 0,-0.22542 2.3e-4,-3.77608 2.3e-4,-4 0,-0.22542 0.16424,-0.44752 0.4945,-0.65237 1.3902,-0.86229 3.72037,-2.57289 4.76562,-4.85937 0.35699,-0.78091 0.55456,-2.2244 0.63477,-3.99024 -0.18581,-5.47994 -1.04411,-11.830616 -1.98242,-13.472652 -1.54025,-2.694894 -7.21231,-4.042969 -9.91407,-4.042969 z m 28.73047,0 c -0.47133,0 -1,0.528673 -1,1 l 0,3.240235 c 0,0.471316 0.52868,1 1,1 l 5.74805,0 c 0.4715,0 1,0.528496 1,1 l 0,3.999996 0,48.28321 c 0,0.47136 0.52864,1 1,1 l 8.29687,0 c 0.47136,0 1,-0.52864 1,-1 l 0,-48.28321 0,-3.999996 c 0,-0.471526 0.52847,-1 1,-1 l 5.74805,0 c 0.47129,0 1,-0.528705 1,-1 l 0,-3.240235 c 0,-0.471306 -0.52869,-1 -1,-1 z m -106.341798,0.0957 c -10.394588,0 -12.994138,8.566941 -12.99414,10.203131 l 0,5.49023 c -10e-7,0.64808 0.195007,1.31826 0.533203,1.8711 l 13.970703,22.83984 c 0.3498,0.57181 0.56836,1.25741 0.56836,1.92773 l 0,4 0,3.75977 0,4 c 0,1.2512 -0.57681,3.08008 -2.886719,3.08008 -2.309909,0 -3.271485,-1.52815 -3.271485,-3.08008 l 0,-4 0,-2.12305 c -7e-6,-0.47152 -0.530436,-1.00003 -1.001953,-1 l -6.912109,0 c -0.471349,3e-5 -1,0.52865 -1,1 l 0,1.92969 c 0,1.93452 1.156193,10.20312 11.550781,10.20312 10.394589,0 12.992186,-8.56693 12.992188,-10.20312 l 0,-5.49023 c 10e-7,-0.63866 -0.184294,-1.3009 -0.517579,-1.84571 L 67.142578,111.25195 c -0.328431,-0.53687 -0.501953,-1.189 -0.501953,-1.81836 l 0,-4 0,-3.75976 0,-3.998049 c 0,-1.2512 0.57681,-3.080078 2.886719,-3.080078 2.309909,0 3.273461,1.528155 3.273437,3.080078 l 0,3.999999 0,2.1211 c 0,0.4714 0.528595,0.99997 1,1 l 6.91211,0 c 0.471465,2e-5 1,-0.52854 1,-1 l 0,-1.92969 c 0,-1.934519 -1.154241,-10.203128 -11.548829,-10.203131 z m 86.267578,5.144532 c 1.27011,0 3.57665,0.645894 4.78125,1.925781 0.99193,1.053926 1.41627,6.476918 1.21289,10.580078 0.15874,3.78275 -0.12155,7.87618 -0.92383,8.625 -1.18712,1.10802 -4.13499,1.44336 -5.35351,1.44336 -0.33333,0 -1,-0.66667 -1,-1 l 0,-3.99804 0,-12.57618 0,-3.999999 c 0,-0.333333 0.85553,-1 1.2832,-1 z m -30.54102,3.154297 c 0.0793,-1e-6 0.15861,0.02683 0.16797,0.08203 l 4.63868,27.34766 0,4 c 0,0.42962 -0.40241,0.98437 -0.83204,0.98437 l -7.95117,0 c -0.42963,0 -0.83203,-0.55474 -0.83203,-0.98437 l 0,-4 4.64063,-27.34766 c 0.009,-0.0552 0.0887,-0.08203 0.16796,-0.08203 z"
         style="fill:#bf0000;fill-opacity:1;fill-rule:evenodd;stroke:none;stroke-width:1px;stroke-linecap:butt;stroke-linejoin:miter;stroke-opacity:1" />
    </g>
  </g>
</svg>
