<?xml version="1.0" encoding="UTF-8" standalone="no"?>
<!-- Created with Inkscape (http://www.inkscape.org/) by Toomai Glittershine for SmashWiki -->
<svg id="svg2" xmlns:rdf="http://www.w3.org/1999/02/22-rdf-syntax-ns#" xmlns="http://www.w3.org/2000/svg" version="1.1" xmlns:cc="http://creativecommons.org/ns#" xmlns:dc="http://purl.org/dc/elements/1.1/" xmlns:xlink="http://www.w3.org/1999/xlink"
		height="256" width="256"
		viewBox="0 0 256 256">
	<defs id="defs4">
		<linearGradient id="linearGradient4239">
			<stop id="stop4241" offset="0" style="stop-color:#000000;stop-opacity:1;" />
			<stop id="stop4243" offset="1" style="stop-color:#7f7f7f;stop-opacity:1;" />
		</linearGradient>
		<linearGradient id="linearGradient4223">
			<stop id="stop4225" offset="0" style="stop-color:#ffffff;stop-opacity:1;" />
			<stop id="stop4227" offset="1" style="stop-color:#7f7f7f;stop-opacity:1;" />
		</linearGradient>
		<linearGradient id="linearGradient4185">
			<stop id="stop4187" offset="0" style="stop-color:#ffffff;stop-opacity:0;" />
			<stop id="stop4189" offset="1" style="stop-color:#ffffff;stop-opacity:1;" />
		</linearGradient>
		<linearGradient id="linearGradient4191" xlink:href="#linearGradient4185" x1="128" y1="16" x2="128" y2="240" gradientUnits="userSpaceOnUse" />
		<linearGradient id="linearGradient4253" xlink:href="#linearGradient4239" x1="88" y1="240" x2="58" y2="210" gradientUnits="userSpaceOnUse" />
		<linearGradient id="linearGradient4245" xlink:href="#linearGradient4239" x1="168" y1="240" x2="198" y2="210" gradientUnits="userSpaceOnUse" />
		<linearGradient id="linearGradient4237" xlink:href="#linearGradient4223" x1="183" y1="16" x2="198" y2="31" gradientUnits="userSpaceOnUse" />
		<linearGradient id="linearGradient4229" xlink:href="#linearGradient4223" x1="73" y1="16" x2="58" y2="31" gradientUnits="userSpaceOnUse" />
	</defs>
	<metadata id="metadata7">
		<rdf:RDF>
			<cc:Work rdf:about="">
				<dc:format>image/svg+xml</dc:format>
				<dc:type rdf:resource="http://purl.org/dc/dcmitype/StillImage"/>
				<dc:title/>
			</cc:Work>
		</rdf:RDF>
	</metadata>
	<g id="g4348">
		<path id="rect4171" style="opacity:1;fill:#474747;fill-opacity:1;stroke:none;stroke-width:1;stroke-linecap:butt;stroke-miterlimit:4;stroke-dasharray:none;stroke-opacity:1"
			d="M 88,240 C 71.38,240 58,226.62 58,210 L 58,31 c 0,-8.31 6.69,-15 15,-15 l 110,0 c 8.31,0 15,6.69 15,15 l 0,179 c 0,16.62 -13.38,30 -30,30 z"
		/>
		<path id="path4183" style="opacity:0.25;fill:url(#linearGradient4191);fill-opacity:1;stroke:none;stroke-width:1;stroke-linecap:butt;stroke-miterlimit:4;stroke-dasharray:none;stroke-opacity:1"
			d="M 88,240 C 71.38,240 58,226.62 58,210 L 58,31 c 0,-8.31 6.69,-15 15,-15 l 110,0 c 8.31,0 15,6.69 15,15 l 0,179 c 0,16.62 -13.38,30 -30,30 z"
		/>
		<path id="path3369" style="fill:#232323;fill-opacity:1;fill-rule:evenodd;stroke:none;stroke-width:0.99999994px;stroke-linecap:butt;stroke-linejoin:miter;stroke-opacity:1"
			d="m 129.094,182.14954 15.03,4.6e-4 c 0.94271,3e-5 1.99957,1.05729 1.99957,2 l 0,7.107 c 0,0.94271 -1.05686,2.00001 -1.99957,2 l -30.254,-2.4e-4 c -0.94264,-1e-5 -1.99953,-1.05712 -1.99953,-1.99976 l 0,-7.107 c 0,-1.3152 0.26847,-2.65354 0.76823,-3.87009 l 17.50086,-42.6018 C 130.42174,136.99121 129.6426,135.827 128.9,135.827 l -15.03,0 c -0.9427,0 -1.99953,-1.0573 -1.99953,-2 l 0,-7.107 c 0,-0.9427 1.05683,-2.00001 1.99953,-2 l 30.254,1.8e-4 c 0.94277,1e-5 2.00006,1.05705 2,1.99982 l -4.3e-4,7.107 c -8e-5,1.31414 -0.26765,2.65152 -0.76701,3.86708 l -17.51805,42.64316 c -0.27926,0.67977 0.52059,1.81228 1.25549,1.8123 z"
		/>
		<path id="path3421" style="opacity:0.25;fill:url(#linearGradient4253);fill-opacity:1;stroke:none;stroke-width:1;stroke-linecap:butt;stroke-miterlimit:4;stroke-dasharray:none;stroke-opacity:1"
			d="m 58,120.5 0,89.5 c 0,16.62 13.38,30 30,30 l 40,0 0,-10 -40,0 c -11.08,0 -20,-8.92 -20,-20 l 0,-87 z"
		/>
		<path id="path3419" style="opacity:0.25;fill:url(#linearGradient4245);fill-opacity:1;stroke:none;stroke-width:1;stroke-linecap:butt;stroke-miterlimit:4;stroke-dasharray:none;stroke-opacity:1"
			d="m 128,240 40,0 c 16.62,0 30,-13.38 30,-30 l 0,-89.5 -10,2.5 0,87 c 0,11.08 -8.92,20 -20,20 l -40,0 z"
		/>
		<path id="path3417" style="opacity:0.25;fill:url(#linearGradient4237);fill-opacity:1;stroke:none;stroke-width:1;stroke-linecap:butt;stroke-miterlimit:4;stroke-dasharray:none;stroke-opacity:1"
			d="M 198,120.5 198,31 c 0,-8.31 -6.69,-15 -15,-15 l -55,0 0,10 50,0 c 5.54,0 10,4.46 10,10 l 0,87 z"
		/>
		<path id="path3412" style="opacity:0.25;fill:url(#linearGradient4229);fill-opacity:1;stroke:none;stroke-width:1;stroke-linecap:butt;stroke-miterlimit:4;stroke-dasharray:none;stroke-opacity:1"
			d="m 68,123 0,-87 c 0,-5.54 4.46,-10 10,-10 l 50,0 0,-10 -55,0 c -8.31,0 -15,6.69 -15,15 l 0,89.5 z"
		/>
		<path id="path4255" style="fill:#353535;fill-opacity:1;fill-rule:evenodd;stroke:none;stroke-width:0.99999994px;stroke-linecap:butt;stroke-linejoin:miter;stroke-opacity:1"
			d="m 113.86914,128.7207 c -0.9427,-1e-5 -1.99805,1.0573 -1.99805,2 l 0,3.10547 c 0,0.9427 1.05535,2 1.99805,2 l 15.03125,0 c 0.63583,0 1.29751,0.85383 1.29751,1.53053 l -3e-5,4.00083 c 0,0.11321 -0.0186,0.22154 -0.0592,0.3202 l -17.5,42.60157 c -0.49976,1.21655 -0.76758,2.55589 -0.76758,3.87109 l 0,3.10742 c 0,0.94264 1.05541,1.99804 1.99805,1.99805 l 30.25391,0.002 c 0.94271,1e-5 2,-1.05729 2,-2 l 0,-3.10742 c 0,-0.94271 -1.05729,-1.99997 -2,-2 l -15.0293,0 c -0.63224,-2e-5 -1.31284,-0.83836 -1.31282,-1.50542 l 1.4e-4,-4.0012 c 0,-0.10776 0.0179,-0.21114 0.0568,-0.30588 l 17.51953,-42.64453 c 0.49936,-1.21556 0.76555,-2.55305 0.76563,-3.86719 l 0,-3.10547 c 6e-5,-0.94277 -1.05723,-1.99999 -2,-2 z"
		/>
	</g>
</svg>